<svg width="2000" height="1700" viewBox="0 0 2000 1700" fill="none" xmlns="http://www.w3.org/2000/svg">
<rect width="2000" height="1700" fill="black"/>
<path d="M284 442.18C284 403.676 300.572 366.749 330.07 339.522C359.568 312.296 399.576 297 441.293 297H1070.46C1112.18 297 1152.19 312.296 1181.69 339.522C1211.18 366.749 1227.76 403.676 1227.76 442.18V761.578C1227.76 769.278 1224.44 776.664 1218.54 782.109C1212.64 787.554 1204.64 790.614 1196.3 790.614C1187.95 790.614 1179.95 787.554 1174.05 782.109C1168.15 776.664 1164.84 769.278 1164.84 761.578V442.18C1164.84 419.078 1154.89 396.922 1137.2 380.586C1119.5 364.25 1095.49 355.072 1070.46 355.072H441.293C416.263 355.072 392.258 364.25 374.559 380.586C356.86 396.922 346.917 419.078 346.917 442.18V1277.37C346.917 1282.33 348.289 1287.2 350.903 1291.52C353.516 1295.84 357.284 1299.48 361.849 1302.08C366.414 1304.68 371.623 1306.16 376.983 1306.38C382.342 1306.6 387.673 1305.55 392.469 1303.33L455.386 1274.3C471.058 1267.07 488.598 1264.02 506.044 1265.48C523.49 1266.93 540.152 1272.84 554.166 1282.54L611.168 1321.97C616.614 1325.74 623.237 1327.78 630.044 1327.78C636.85 1327.78 643.473 1325.74 648.919 1321.97L703.153 1284.4C718.164 1274.01 736.189 1267.99 754.927 1267.1C773.664 1266.21 792.264 1270.49 808.35 1279.41L850.693 1302.87C857.852 1306.83 863.014 1313.25 865.043 1320.72C867.073 1328.19 865.804 1336.1 861.515 1342.71C857.227 1349.31 850.27 1354.08 842.176 1355.95C834.082 1357.82 825.513 1356.65 818.354 1352.69L775.948 1329.23C770.592 1326.26 764.399 1324.83 758.157 1325.12C751.916 1325.41 745.909 1327.41 740.903 1330.86L686.669 1368.43C670.333 1379.74 650.464 1385.85 630.044 1385.85C609.623 1385.85 589.754 1379.74 573.418 1368.43L516.415 1328.94C511.738 1325.73 506.184 1323.77 500.373 1323.3C494.562 1322.83 488.724 1323.86 483.51 1326.27L420.593 1355.31C406.202 1361.95 390.21 1365.09 374.136 1364.42C358.062 1363.75 342.439 1359.3 328.753 1351.5C315.066 1343.69 303.77 1332.78 295.937 1319.8C288.104 1306.83 283.995 1292.23 284 1277.37V442.18Z" fill="#7D67FF"/>
<path d="M1049.71 785.714L926.041 943.074H1668.06L1784 785.714H1049.71Z" fill="url(#paint0_linear_564_41)"/>
<path d="M1049.71 1173.06L926.041 1021.75H1668.06L1784 1173.06H1049.71Z" fill="url(#paint1_linear_564_41)"/>
<path d="M926.041 1397L1049.71 1263.85H1784L1668.06 1397H926.041Z" fill="url(#paint2_linear_564_41)"/>
<path fill-rule="evenodd" clip-rule="evenodd" d="M764.457 984.697C784.737 984.697 804.819 980.25 823.556 971.61C842.293 962.97 859.317 950.306 873.657 934.342C887.998 918.377 899.373 899.424 907.134 878.565C914.895 857.706 918.89 835.35 918.89 812.773C918.89 790.195 914.895 767.839 907.134 746.98C899.373 726.121 887.998 707.169 873.657 691.204C859.317 675.239 842.293 662.575 823.556 653.935C804.819 645.295 784.737 640.848 764.457 640.848C723.499 640.848 684.218 658.962 655.257 691.204C626.295 723.446 610.024 767.176 610.024 812.773C610.024 858.37 626.295 902.099 655.257 934.342C684.218 966.584 723.499 984.697 764.457 984.697ZM760.476 882.307L846.272 767.69L819.916 743.239L746.131 841.79L707.952 799.267L683.689 826.278L735.166 883.586L748.448 898.372L760.476 882.307Z" fill="#7D67FF"/>
<defs>
<linearGradient id="paint0_linear_564_41" x1="1450.82" y1="679.056" x2="1103.17" y2="1377.1" gradientUnits="userSpaceOnUse">
<stop offset="0.346154" stop-color="#14F195"/>
<stop offset="1" stop-color="#9945FF"/>
</linearGradient>
<linearGradient id="paint1_linear_564_41" x1="1450.82" y1="679.056" x2="1103.17" y2="1377.1" gradientUnits="userSpaceOnUse">
<stop offset="0.346154" stop-color="#14F195"/>
<stop offset="1" stop-color="#9945FF"/>
</linearGradient>
<linearGradient id="paint2_linear_564_41" x1="1450.82" y1="679.056" x2="1103.17" y2="1377.1" gradientUnits="userSpaceOnUse">
<stop offset="0.346154" stop-color="#14F195"/>
<stop offset="1" stop-color="#9945FF"/>
</linearGradient>
</defs>
</svg>
