<svg width="1200" height="900" viewBox="0 0 1200 900" fill="none" xmlns="http://www.w3.org/2000/svg">
<path d="M3.3843e-06 118.784C3.3843e-06 87.2807 13.2575 57.0675 36.8559 34.7911C60.4544 12.5147 92.4608 0 125.834 0H629.17C662.543 0 694.55 12.5147 718.148 34.7911C741.747 57.0675 755.004 87.2807 755.004 118.784V380.11C755.004 386.41 752.353 392.453 747.633 396.908C742.913 401.364 736.512 403.867 729.837 403.867C723.163 403.867 716.761 401.364 712.042 396.908C707.322 392.453 704.67 386.41 704.67 380.11V118.784C704.67 99.8822 696.716 81.7542 682.557 68.3884C668.398 55.0226 649.194 47.5137 629.17 47.5137H125.834C105.81 47.5137 86.6062 55.0226 72.4472 68.3884C58.2881 81.7542 50.3336 99.8822 50.3336 118.784V802.127C50.3338 806.178 51.4314 810.162 53.5222 813.7C55.613 817.237 58.6275 820.212 62.2792 822.34C65.9309 824.468 70.0986 825.68 74.386 825.859C78.6734 826.039 82.9383 825.18 86.7751 823.365L137.109 799.608C149.646 793.699 163.679 791.201 177.635 792.392C191.592 793.584 204.921 798.419 216.133 806.355L261.735 838.617C266.091 841.701 271.389 843.368 276.835 843.368C282.28 843.368 287.579 841.701 291.935 838.617L335.322 807.876C347.331 799.375 361.751 794.446 376.741 793.718C391.731 792.99 406.611 796.497 419.48 803.789L453.355 822.985C459.082 826.224 463.211 831.477 464.835 837.59C466.458 843.702 465.443 850.173 462.012 855.579C458.581 860.985 453.016 864.884 446.541 866.416C440.065 867.949 433.21 866.99 427.483 863.752L393.558 844.556C389.274 842.124 384.319 840.952 379.326 841.189C374.333 841.426 369.527 843.061 365.523 845.887L322.135 876.628C309.066 885.881 293.171 890.882 276.835 890.882C260.499 890.882 244.603 885.881 231.535 876.628L185.932 844.319C182.191 841.686 177.747 840.088 173.098 839.702C168.45 839.316 163.779 840.158 159.608 842.133L109.274 865.89C97.7617 871.326 84.968 873.892 72.1087 873.347C59.2494 872.801 46.7515 869.16 35.8022 862.771C24.8529 856.382 15.8159 847.456 9.54969 836.842C3.28347 826.228 -0.00385029 814.278 3.3843e-06 802.127V118.784Z" fill="#7D67FF"/>
<path d="M612.568 399.856L513.633 528.606H1107.25L1200 399.856H612.568Z" fill="url(#paint0_linear_545_47)"/>
<path d="M612.568 716.779L513.633 592.981H1107.25L1200 716.779H612.568Z" fill="url(#paint1_linear_545_47)"/>
<path d="M513.633 900L612.568 791.058H1200L1107.25 900H513.633Z" fill="url(#paint2_linear_545_47)"/>
<path fill-rule="evenodd" clip-rule="evenodd" d="M384.366 562.662C400.59 562.662 416.655 559.024 431.645 551.955C446.634 544.886 460.254 534.524 471.726 521.462C483.198 508.4 492.299 492.893 498.507 475.827C504.716 458.761 507.912 440.469 507.912 421.997C507.912 403.524 504.716 385.233 498.507 368.166C492.299 351.1 483.198 335.593 471.726 322.531C460.254 309.469 446.634 299.108 431.645 292.039C416.655 284.97 400.59 281.331 384.366 281.331C351.599 281.331 320.175 296.151 297.005 322.531C273.836 348.911 260.82 384.69 260.82 421.997C260.82 459.304 273.836 495.082 297.005 521.462C320.175 547.842 351.599 562.662 384.366 562.662ZM381.181 478.888L449.818 385.111L428.732 365.105L369.705 445.738L339.162 410.947L319.751 433.047L360.933 479.935L371.558 492.033L381.181 478.888Z" fill="#7D67FF"/>
<defs>
<linearGradient id="paint0_linear_545_47" x1="933.46" y1="312.59" x2="645.186" y2="878.544" gradientUnits="userSpaceOnUse">
<stop offset="0.346154" stop-color="#14F195"/>
<stop offset="1" stop-color="#9945FF"/>
</linearGradient>
<linearGradient id="paint1_linear_545_47" x1="933.46" y1="312.59" x2="645.186" y2="878.544" gradientUnits="userSpaceOnUse">
<stop offset="0.346154" stop-color="#14F195"/>
<stop offset="1" stop-color="#9945FF"/>
</linearGradient>
<linearGradient id="paint2_linear_545_47" x1="933.46" y1="312.59" x2="645.186" y2="878.544" gradientUnits="userSpaceOnUse">
<stop offset="0.346154" stop-color="#14F195"/>
<stop offset="1" stop-color="#9945FF"/>
</linearGradient>
</defs>
</svg>
