<svg width="1529" height="1150" viewBox="0 0 1529 1150" fill="none" xmlns="http://www.w3.org/2000/svg">
<rect width="1529" height="1150" fill="white"/>
<path d="M41 149.932C41 110.168 56.7764 72.0318 84.8586 43.9141C112.941 15.7964 151.028 0 190.742 0H789.712C829.427 0 867.514 15.7964 895.596 43.9141C923.678 72.0318 939.455 110.168 939.455 149.932V479.783C939.455 487.736 936.3 495.363 930.683 500.986C925.067 506.61 917.449 509.769 909.506 509.769C901.563 509.769 893.946 506.61 888.33 500.986C882.713 495.363 879.558 487.736 879.558 479.783V149.932C879.558 126.073 870.092 103.192 853.243 86.3213C836.393 69.4507 813.541 59.9729 789.712 59.9729H190.742C166.914 59.9729 144.061 69.4507 127.212 86.3213C110.363 103.192 100.897 126.073 100.897 149.932V1012.46C100.897 1017.58 102.203 1022.6 104.691 1027.07C107.179 1031.54 110.767 1035.29 115.112 1037.98C119.458 1040.66 124.417 1042.19 129.519 1042.42C134.621 1042.64 139.697 1041.56 144.262 1039.27L204.159 1009.28C219.079 1001.82 235.778 998.671 252.386 1000.17C268.994 1001.68 284.857 1007.78 298.198 1017.8L352.464 1058.52C357.648 1062.41 363.953 1064.52 370.433 1064.52C376.913 1064.52 383.219 1062.41 388.403 1058.52L440.034 1019.72C454.324 1008.99 471.484 1002.77 489.322 1001.85C507.16 1000.93 524.867 1005.36 540.181 1014.56L580.492 1038.79C587.307 1042.88 592.221 1049.51 594.153 1057.22C596.085 1064.94 594.877 1073.11 590.794 1079.93C586.712 1086.75 580.089 1091.67 572.383 1093.61C564.678 1095.54 556.52 1094.33 549.705 1090.25L509.335 1066.02C504.236 1062.95 498.34 1061.47 492.398 1061.77C486.456 1062.07 480.737 1064.13 475.972 1067.7L424.341 1106.5C408.789 1118.18 389.873 1124.49 370.433 1124.49C350.994 1124.49 332.078 1118.18 316.526 1106.5L262.259 1065.72C257.807 1062.39 252.519 1060.38 246.987 1059.89C241.455 1059.4 235.897 1060.47 230.933 1062.96L171.036 1092.95C157.336 1099.81 142.112 1103.05 126.809 1102.36C111.507 1101.67 96.6342 1097.07 83.6046 1089.01C70.5749 1080.94 59.8209 1069.68 52.3641 1056.28C44.9073 1042.88 40.9954 1027.8 41 1012.46V149.932Z" fill="#7D67FF"/>
<path d="M769.957 504.707L652.223 667.218H1358.62L1469 504.707H769.957Z" fill="url(#paint0_linear_545_41)"/>
<path d="M769.957 904.734L652.223 748.473H1358.62L1469 904.734H769.957Z" fill="url(#paint1_linear_545_41)"/>
<path d="M652.223 1136L769.957 998.491H1469L1358.62 1136H652.223Z" fill="url(#paint2_linear_545_41)"/>
<path fill-rule="evenodd" clip-rule="evenodd" d="M498.395 710.205C517.702 710.205 536.82 705.612 554.657 696.69C572.494 687.767 588.702 674.688 602.354 658.201C616.006 641.714 626.835 622.141 634.224 600.6C641.612 579.058 645.415 555.97 645.415 532.654C645.415 509.337 641.612 486.249 634.224 464.708C626.835 443.166 616.006 423.593 602.354 407.106C588.702 390.619 572.494 377.54 554.657 368.618C536.82 359.695 517.702 355.102 498.395 355.102C459.403 355.102 422.008 373.809 394.436 407.106C366.865 440.403 351.375 485.564 351.375 532.654C351.375 579.743 366.865 624.904 394.436 658.201C422.008 691.499 459.403 710.205 498.395 710.205ZM494.605 604.463L576.283 486.096L551.191 460.844L480.949 562.62L444.602 518.706L421.504 546.601L470.51 605.785L483.154 621.054L494.605 604.463Z" fill="#7D67FF"/>
<defs>
<linearGradient id="paint0_linear_545_41" x1="1151.82" y1="394.558" x2="775.562" y2="1090.98" gradientUnits="userSpaceOnUse">
<stop offset="0.346154" stop-color="#14F195"/>
<stop offset="1" stop-color="#9945FF"/>
</linearGradient>
<linearGradient id="paint1_linear_545_41" x1="1151.82" y1="394.558" x2="775.562" y2="1090.98" gradientUnits="userSpaceOnUse">
<stop offset="0.346154" stop-color="#14F195"/>
<stop offset="1" stop-color="#9945FF"/>
</linearGradient>
<linearGradient id="paint2_linear_545_41" x1="1151.82" y1="394.558" x2="775.562" y2="1090.98" gradientUnits="userSpaceOnUse">
<stop offset="0.346154" stop-color="#14F195"/>
<stop offset="1" stop-color="#9945FF"/>
</linearGradient>
</defs>
</svg>
