<svg width="2200" height="1700" viewBox="0 0 2200 1700" fill="none" xmlns="http://www.w3.org/2000/svg">
<rect width="2200" height="1700" fill="black"/>
<path d="M166 277.601C166 222.277 186.636 169.218 223.369 130.098C260.102 90.9776 309.922 69 361.87 69H1145.35C1197.3 69 1247.12 90.9776 1283.85 130.098C1320.58 169.218 1341.22 222.277 1341.22 277.601V736.524C1341.22 747.589 1337.09 758.201 1329.75 766.025C1322.4 773.849 1312.43 778.244 1302.04 778.244C1291.66 778.244 1281.69 773.849 1274.34 766.025C1267 758.201 1262.87 747.589 1262.87 736.524V277.601C1262.87 244.407 1250.49 212.571 1228.45 189.099C1206.41 165.627 1176.52 152.44 1145.35 152.44H361.87C330.701 152.44 300.809 165.627 278.769 189.099C256.73 212.571 244.348 244.407 244.348 277.601V1477.64C244.348 1484.76 246.057 1491.75 249.311 1497.97C252.566 1504.18 257.258 1509.4 262.942 1513.14C268.626 1516.88 275.114 1519.01 281.787 1519.32C288.461 1519.64 295.099 1518.13 301.072 1514.94L379.42 1473.22C398.935 1462.84 420.778 1458.46 442.502 1460.55C464.226 1462.64 484.975 1471.13 502.426 1485.07L573.409 1541.72C580.19 1547.14 588.437 1550.07 596.914 1550.07C605.39 1550.07 613.637 1547.14 620.418 1541.72L687.954 1487.74C706.646 1472.81 729.092 1464.15 752.425 1462.88C775.759 1461.6 798.92 1467.76 818.952 1480.56L871.68 1514.27C880.594 1519.96 887.022 1529.19 889.549 1539.92C892.076 1550.66 890.496 1562.02 885.156 1571.51C879.815 1581.01 871.153 1587.85 861.073 1590.54C850.994 1593.24 840.323 1591.55 831.409 1585.86L778.602 1552.15C771.933 1547.88 764.221 1545.83 756.448 1546.24C748.676 1546.66 741.196 1549.53 734.963 1554.49L667.427 1608.48C647.084 1624.73 622.342 1633.51 596.914 1633.51C571.485 1633.51 546.743 1624.73 526.4 1608.48L455.417 1551.74C449.593 1547.11 442.676 1544.31 435.44 1543.63C428.204 1542.95 420.934 1544.43 414.441 1547.9L336.093 1589.62C318.173 1599.17 298.259 1603.67 278.242 1602.71C258.226 1601.76 238.772 1595.36 221.729 1584.14C204.685 1572.92 190.619 1557.25 180.865 1538.61C171.111 1519.97 165.994 1498.98 166 1477.64V277.601Z" fill="#7D67FF"/>
<path d="M1119.51 771.201L965.507 997.303H1889.51L2033.89 771.201H1119.51Z" fill="url(#paint0_linear_545_41)"/>
<path d="M1119.51 1327.76L965.507 1110.35H1889.51L2033.89 1327.76H1119.51Z" fill="url(#paint1_linear_545_41)"/>
<path d="M965.507 1649.52L1119.51 1458.2H2033.89L1889.51 1649.52H965.507Z" fill="url(#paint2_linear_545_41)"/>
<path fill-rule="evenodd" clip-rule="evenodd" d="M764.293 1057.11C789.547 1057.11 814.554 1050.72 837.886 1038.31C861.218 1025.89 882.418 1007.7 900.275 984.758C918.133 961.82 932.298 934.588 941.963 904.617C951.627 874.646 956.601 842.523 956.601 810.083C956.601 777.643 951.627 745.521 941.963 715.55C932.298 685.579 918.133 658.347 900.275 635.408C882.418 612.47 861.218 594.274 837.886 581.859C814.554 569.445 789.547 563.056 764.293 563.056C713.289 563.056 664.375 589.082 628.31 635.408C592.245 681.735 571.984 744.567 571.984 810.083C571.984 875.599 592.245 938.432 628.31 984.758C664.375 1031.09 713.289 1057.11 764.293 1057.11ZM759.335 909.992L866.174 745.307L833.353 710.174L741.472 851.776L693.929 790.678L663.715 829.489L727.818 911.831L744.357 933.076L759.335 909.992Z" fill="#7D67FF"/>
<defs>
<linearGradient id="paint0_linear_545_41" x1="1619" y1="617.951" x2="1078.24" y2="1558.95" gradientUnits="userSpaceOnUse">
<stop offset="0.346154" stop-color="#14F195"/>
<stop offset="1" stop-color="#9945FF"/>
</linearGradient>
<linearGradient id="paint1_linear_545_41" x1="1619" y1="617.951" x2="1078.24" y2="1558.95" gradientUnits="userSpaceOnUse">
<stop offset="0.346154" stop-color="#14F195"/>
<stop offset="1" stop-color="#9945FF"/>
</linearGradient>
<linearGradient id="paint2_linear_545_41" x1="1619" y1="617.951" x2="1078.24" y2="1558.95" gradientUnits="userSpaceOnUse">
<stop offset="0.346154" stop-color="#14F195"/>
<stop offset="1" stop-color="#9945FF"/>
</linearGradient>
</defs>
</svg>
